# xmcd CD database file
# Copyright (C) 1996 Ti Kan
#
# Track frame offsets:
#	182
#	20707
#	43207
#	63470
#	96845
#	113495
#	132195
#	152920
#	176332
#	199695
# Disc length: 2931 seconds
#
# Revision: 1
# Processed by: cddbd v1.4PL0 Copyright (c) Steve Scherf et al.
# Submitted via: CDCOPY 4.744
#
DISCID=840b710a
DTITLE=Basi - Basi
DYEAR=1900
DGENRE=
TTITLE0=I will always love you
TTITLE1=I have nothing
TTITLE2=Run to you
TTITLE3=No ordinary love
TTITLE4=Why
TTITLE5=Flashdance (What a feeling)
TTITLE6=Wuthering heights
TTITLE7=Nothing compares 2U
TTITLE8=Smooth operator
TTITLE9=Change
EXTD=
EXTT0=
EXTT1=
EXTT2=
EXTT3=
EXTT4=
EXTT5=
EXTT6=
EXTT7=
EXTT8=
EXTT9=
PLAYORDER=
